<svg aria-hidden="true" style="position: absolute; width: 0; height: 0; overflow: hidden;" version="1.1" xmlns="http://www.w3.org/2000/svg" xmlns:xlink="http://www.w3.org/1999/xlink">
<defs>
<symbol id="icon-animal" viewBox="0 0 69 32">
<path fill="#0f664d" style="fill: var(--color1, #0f664d)" d="M12.271 5.228l3.341-5.228 0.919 0.338-0.717 4.997 2.822-3.864 0.884 0.44-1.804 5.841h10.844c2.934 0 5.392-0.072 7.611-0.137 0.806-0.024 1.58-0.046 2.334-0.064 2.825-0.067 5.353-0.068 8.139 0.204 0.648 0.063 1.259 0.118 1.841 0.171 4.597 0.416 7.443 0.673 12.863 3.372l0.021 0.011 0.020 0.013c1.993 1.241 3.803 2.395 5.107 3.759 1.325 1.386 2.142 3.002 2.142 5.146v0.049l-0.010 0.048c-0.263 1.306-0.666 2.264-1.424 3.156-0.74 0.87-1.797 1.653-3.298 2.65-2.568 1.705-4.154 2.633-7.144 3.554l-0.013 0.004-0.013 0.003c-4.068 1.013-6.12 1.013-9.64 1.013-1.366 0-2.435-0.036-3.418-0.069-1.739-0.059-3.206-0.108-5.562 0.068-0.344 0.026-0.714 0.163-1.126 0.365-0.182 0.089-0.362 0.185-0.547 0.284-0.022 0.012-0.044 0.024-0.067 0.036-0.205 0.109-0.419 0.222-0.63 0.319-0.405 0.185-0.892 0.357-1.383 0.272-0.538-0.093-0.946-0.462-1.242-1.051l-0.034-0.067-0.012-0.074c-0.151-0.901 0.103-1.629 0.659-2.169 0.527-0.513 1.286-0.821 2.092-1.017 1.602-0.388 3.653-0.388 5.224-0.388h0.034c1.012 0 1.959 0.032 2.859 0.063l0.111 0.004c0.862 0.030 1.678 0.058 2.478 0.058 1.664 0 3.242-0.123 4.935-0.605 1.085-0.309 2.141-1.113 2.949-1.884 0.141-0.134 0.272-0.265 0.393-0.391-0.628 0.108-1.431 0.243-2.326 0.385-2.115 0.335-4.762 0.712-6.852 0.872-2.434 0.186-5.979 0.458-8.719 0.484-1.359 0.013-2.566-0.034-3.344-0.196-0.198-0.041-0.384-0.093-0.545-0.161-0.154-0.065-0.327-0.161-0.456-0.313-0.146-0.174-0.218-0.403-0.163-0.649 0.048-0.214 0.179-0.385 0.309-0.514 0.862-0.859 2.228-1.29 3.589-1.617 0.468-0.112 0.937-0.213 1.401-0.313 0.945-0.203 1.87-0.401 2.719-0.685 1.374-0.459 2.895-0.838 4.068-1.101 0.215-0.048 0.419-0.093 0.608-0.133-0.179-0.083-0.37-0.168-0.569-0.25-0.505-0.209-1.048-0.399-1.557-0.509-0.519-0.112-0.949-0.13-1.257-0.047-0.041 0.011-0.138 0.059-0.299 0.181-0.151 0.114-0.318 0.261-0.5 0.425-0.024 0.022-0.048 0.043-0.073 0.065-0.156 0.14-0.321 0.289-0.478 0.418-0.176 0.144-0.383 0.297-0.592 0.386-0.306 0.13-0.609 0.083-0.836 0.013-0.224-0.069-0.445-0.185-0.616-0.274l-0.002-0.001c-0.192-0.1-0.329-0.172-0.449-0.211-0.059-0.020-0.090-0.023-0.103-0.024-0.147 0.070-0.221 0.173-0.329 0.356-0.007 0.012-0.014 0.025-0.023 0.040-0.097 0.17-0.299 0.524-0.727 0.627-0.497 0.119-0.892-0.168-1.079-0.322-0.023-0.019-0.048-0.041-0.073-0.063-0.036 0.029-0.076 0.062-0.119 0.101-0.115 0.103-0.229 0.218-0.356 0.346-0.039 0.039-0.078 0.079-0.12 0.121-0.168 0.168-0.36 0.354-0.564 0.504-0.201 0.147-0.459 0.292-0.761 0.323-0.246 0.025-0.424-0.097-0.519-0.186-0.092-0.086-0.159-0.189-0.204-0.264-0.039-0.064-0.079-0.137-0.114-0.201-0.007-0.013-0.014-0.026-0.021-0.038-0.043-0.078-0.082-0.147-0.122-0.209-0.087-0.134-0.146-0.18-0.174-0.193-0.007-0.003-0.015-0.006-0.032-0.005-0.020 0.001-0.065 0.008-0.143 0.047-0.292 0.145-0.589 0.43-0.932 0.758-0.017 0.017-0.035 0.034-0.053 0.051-0.168 0.16-0.352 0.333-0.532 0.465-0.166 0.122-0.416 0.276-0.711 0.276-0.179 0-0.362-0.061-0.504-0.207-0.128-0.132-0.178-0.288-0.2-0.403-0.041-0.219-0.010-0.466 0.022-0.651 0.025-0.145 0.060-0.298 0.091-0.432-0.042 0.011-0.086 0.023-0.131 0.035-0.060 0.016-0.124 0.034-0.193 0.052-0.166 0.043-0.362 0.091-0.54 0.107-2.54 0.23-5.664 0.603-8.157 0.92-1.245 0.158-2.332 0.302-3.106 0.406-0.387 0.052-0.697 0.094-0.91 0.123l-0.328 0.045-0.070-0.494c0.051 0.496 0.051 0.496 0.051 0.496l-0.019 0.002-0.055 0.005c-0.048 0.005-0.12 0.012-0.212 0.021-0.184 0.018-0.451 0.043-0.785 0.072-0.667 0.059-1.599 0.136-2.66 0.208-2.118 0.144-4.77 0.27-6.86 0.193-0.691-0.025-1.51 0.1-2.321 0.224-0.274 0.042-0.547 0.084-0.815 0.119-0.496 0.066-0.998 0.115-1.39 0.064-0.197-0.025-0.422-0.082-0.611-0.22-0.213-0.155-0.34-0.386-0.355-0.658-0.066-1.149 0.766-1.843 1.631-2.251 0.876-0.413 1.963-0.626 2.794-0.764 1.565-0.26 2.713-0.188 3.841-0.091 0.094 0.008 0.187 0.016 0.28 0.025 1.024 0.090 2.050 0.181 3.433 0.061 0.573-0.050 1.162-0.095 1.755-0.141 1.492-0.115 3.008-0.231 4.342-0.422 0.93-0.133 1.742-0.298 2.374-0.513 0.652-0.222 1.020-0.468 1.175-0.7 0.004-0.007 0.009 0.011-0.003-0.015-0.028-0.063-0.116-0.18-0.323-0.346-0.386-0.309-1.018-0.659-1.834-1.058l-0.513 0.091c-0.423 0.075-1.018 0.181-1.708 0.302-1.378 0.242-3.133 0.547-4.639 0.797-2.16 0.359-5.12 0.596-7.507 0.689-1.194 0.046-2.256 0.057-3.012 0.027-0.373-0.015-0.693-0.040-0.92-0.082-0.104-0.019-0.238-0.049-0.352-0.108-0.053-0.028-0.163-0.092-0.241-0.219-0.101-0.165-0.103-0.361-0.022-0.523 0.326-0.649 0.942-1.076 1.631-1.373 0.693-0.299 1.525-0.494 2.374-0.642 0.696-0.121 1.429-0.214 2.13-0.303 0.155-0.020 0.309-0.039 0.461-0.059 0.846-0.109 1.618-0.221 2.246-0.379 1.655-0.416 3.311-0.633 4.549-0.746 0.065-0.006 0.128-0.012 0.19-0.017-1.067-0.566-2.088-1.184-2.927-1.857-0.703-0.565-1.474-1.094-2.255-1.63-0.096-0.066-0.192-0.132-0.288-0.198-0.871-0.599-1.747-1.214-2.499-1.882-1.512-1.343-2.605-2.981-2.148-5.258 0.135-0.673 0.445-1.189 1.004-1.392 0.511-0.185 1.076-0.045 1.566 0.157 0.508 0.209 1.056 0.535 1.59 0.875 0.22 0.14 0.434 0.28 0.646 0.418 0.322 0.21 0.638 0.417 0.957 0.612 0.708 0.433 1.406 0.666 1.929 0.789 0.225 0.053 0.415 0.086 0.558 0.106zM12.527 5.756c-0.021 0.498-0.021 0.498-0.022 0.498l-0.001-0-0.002-0-0.006-0-0.017-0.001c-0.014-0.001-0.034-0.002-0.060-0.004-0.050-0.004-0.121-0.011-0.21-0.022-0.178-0.022-0.428-0.062-0.728-0.133-0.598-0.141-1.402-0.408-2.222-0.91-0.326-0.2-0.67-0.424-1.005-0.643-0.21-0.137-0.417-0.272-0.613-0.397-0.53-0.337-1.013-0.621-1.433-0.794-0.439-0.18-0.699-0.193-0.84-0.142-0.093 0.034-0.263 0.145-0.364 0.65-0.357 1.776 0.441 3.082 1.832 4.318 0.699 0.622 1.527 1.205 2.401 1.806 0.095 0.066 0.191 0.131 0.288 0.197 0.778 0.534 1.581 1.085 2.315 1.675 1.177 0.945 2.782 1.797 4.411 2.576 0.612 0.293 1.223 0.573 1.811 0.843l0.016 0.007c0.592 0.271 1.162 0.533 1.682 0.784 0.881 0.426 1.663 0.842 2.171 1.249 0.251 0.201 0.485 0.438 0.61 0.717 0.142 0.316 0.131 0.663-0.078 0.976-0.346 0.517-0.984 0.852-1.684 1.090-0.719 0.245-1.604 0.421-2.557 0.557-1.369 0.195-2.938 0.316-4.442 0.432-0.585 0.045-1.161 0.089-1.711 0.137-1.473 0.128-2.579 0.030-3.604-0.061-0.095-0.008-0.189-0.017-0.282-0.025-1.098-0.095-2.148-0.158-3.589 0.081-0.829 0.138-1.793 0.335-2.53 0.682-0.712 0.336-1.056 0.729-1.061 1.219 0.023 0.006 0.054 0.012 0.097 0.018 0.245 0.032 0.625 0.004 1.128-0.063 0.221-0.030 0.462-0.067 0.716-0.105 0.831-0.127 1.794-0.275 2.59-0.246 2.035 0.075 4.643-0.048 6.754-0.192 1.053-0.072 1.978-0.148 2.64-0.206 0.331-0.029 0.595-0.054 0.777-0.071 0.091-0.009 0.161-0.016 0.208-0.020l0.062-0.006 0.321-0.044c0.213-0.029 0.524-0.072 0.912-0.124 0.777-0.104 1.865-0.248 3.114-0.407 2.495-0.317 5.634-0.692 8.193-0.924 0.087-0.008 0.211-0.035 0.376-0.078 0.049-0.013 0.103-0.027 0.159-0.043 0.113-0.031 0.236-0.064 0.343-0.089 0.152-0.036 0.362-0.079 0.55-0.063 0.096 0.008 0.254 0.037 0.393 0.152 0.162 0.134 0.224 0.319 0.224 0.486 0 0.16-0.048 0.369-0.083 0.518l-0.001 0.003c-0.007 0.031-0.015 0.063-0.022 0.094-0.020 0.084-0.039 0.167-0.056 0.248 0.064-0.058 0.134-0.123 0.21-0.196 0.026-0.025 0.054-0.051 0.082-0.078 0.308-0.296 0.713-0.685 1.149-0.903 0.357-0.178 0.715-0.205 1.040-0.057 0.292 0.133 0.479 0.375 0.598 0.557 0.062 0.096 0.116 0.192 0.161 0.273 0.009 0.017 0.018 0.033 0.026 0.048 0.010 0.019 0.020 0.037 0.029 0.053 0.028-0.017 0.058-0.037 0.092-0.062 0.136-0.099 0.28-0.236 0.447-0.403 0.033-0.033 0.067-0.068 0.103-0.103 0.131-0.132 0.274-0.277 0.415-0.403 0.176-0.158 0.394-0.327 0.642-0.423 0.137-0.052 0.26-0.036 0.334-0.016 0.073 0.020 0.129 0.050 0.161 0.070 0.064 0.039 0.119 0.087 0.152 0.116 0.037 0.033 0.066 0.059 0.091 0.083 0.038 0.035 0.071 0.066 0.12 0.106 0.071 0.058 0.126 0.093 0.168 0.11 0.015 0.006 0.025 0.009 0.030 0.010 0.014-0.018 0.051-0.069 0.129-0.201 0.127-0.215 0.334-0.558 0.791-0.765 0.306-0.138 0.61-0.079 0.822-0.008 0.199 0.066 0.402 0.173 0.564 0.257 0.011 0.006 0.022 0.011 0.032 0.017 0.187 0.097 0.327 0.168 0.45 0.206 0.058 0.018 0.096 0.023 0.12 0.024 0.011 0 0.018-0 0.022-0.001s0.004-0.001 0.005-0.001c0.069-0.029 0.183-0.104 0.348-0.239 0.137-0.112 0.282-0.243 0.44-0.384 0.025-0.023 0.050-0.045 0.076-0.068 0.18-0.162 0.376-0.336 0.566-0.479 0.18-0.136 0.404-0.284 0.641-0.348 0.537-0.146 1.154-0.091 1.733 0.034 0.589 0.128 1.193 0.341 1.729 0.563 0.538 0.223 1.020 0.46 1.366 0.641 0.174 0.091 0.314 0.167 0.412 0.222 0.012 0.007 0.024 0.013 0.034 0.019h3.896c0.002-0.027 0.004-0.055 0.006-0.084 0.026-0.348 0.077-0.825 0.176-1.341 0.099-0.514 0.25-1.080 0.481-1.6 0.23-0.515 0.553-1.019 1.019-1.367 0.492-0.367 1.101-0.531 1.693-0.59 0.596-0.060 1.216-0.019 1.768 0.057 0.554 0.077 1.054 0.191 1.414 0.286 0.181 0.048 0.328 0.090 0.43 0.122 0.051 0.016 0.092 0.029 0.12 0.038l0.045 0.015 0.001 0c0 0 0 0-0.161 0.472s-0.161 0.472-0.161 0.472l-0.001-0-0.006-0.002-0.026-0.008c-0.023-0.008-0.058-0.019-0.104-0.033-0.092-0.028-0.226-0.067-0.393-0.111-0.334-0.088-0.793-0.193-1.296-0.262-0.505-0.070-1.040-0.102-1.529-0.053-0.494 0.050-0.902 0.179-1.193 0.396-0.277 0.207-0.512 0.542-0.704 0.973-0.19 0.427-0.322 0.914-0.413 1.384-0.090 0.468-0.137 0.905-0.161 1.226-0.012 0.16-0.018 0.29-0.021 0.379-0.002 0.044-0.003 0.079-0.003 0.101l-0 0.025v0.006l-0 0.001-0.002 0.496h-4.962l-0.1 0.019c-0.094 0.018-0.233 0.044-0.407 0.079-0.349 0.069-0.843 0.171-1.421 0.3-1.158 0.26-2.642 0.63-3.969 1.073-0.902 0.301-1.923 0.521-2.9 0.731-0.45 0.097-0.89 0.191-1.305 0.291-1.297 0.312-2.35 0.672-3.003 1.248 0.066 0.020 0.145 0.041 0.239 0.060 0.66 0.138 1.769 0.187 3.129 0.175 2.699-0.026 6.209-0.294 8.652-0.481 2.048-0.157 4.661-0.528 6.772-0.863 1.053-0.167 1.977-0.324 2.639-0.439 0.33-0.058 0.595-0.105 0.777-0.137 0.091-0.016 0.161-0.029 0.208-0.038l0.072-0.013 0.091 0.491c0.402 0.298 0.402 0.298 0.402 0.298l-0.002 0.003-0.006 0.007-0.020 0.027c-0.018 0.023-0.043 0.055-0.076 0.096-0.065 0.082-0.161 0.199-0.282 0.341-0.243 0.284-0.592 0.669-1.020 1.077-0.844 0.804-2.043 1.746-3.367 2.123-1.814 0.516-3.493 0.643-5.21 0.643-0.818 0-1.65-0.029-2.506-0.059l-0.118-0.004c-0.9-0.031-1.832-0.062-2.824-0.062-1.61 0-3.548 0.003-5.021 0.36-0.737 0.179-1.291 0.432-1.628 0.761-0.296 0.288-0.457 0.663-0.382 1.218 0.191 0.351 0.363 0.427 0.481 0.447 0.172 0.030 0.418-0.024 0.794-0.196 0.18-0.082 0.369-0.182 0.575-0.292 0.022-0.012 0.044-0.024 0.067-0.036 0.184-0.098 0.38-0.203 0.579-0.3 0.443-0.217 0.953-0.424 1.492-0.464 2.404-0.18 3.956-0.128 5.736-0.069 0.978 0.033 2.025 0.067 3.319 0.067 3.489 0 5.445 0 9.384-0.98 2.853-0.881 4.347-1.751 6.871-3.427 1.504-0.999 2.451-1.713 3.089-2.464 0.612-0.72 0.958-1.497 1.197-2.658-0.012-1.822-0.697-3.187-1.866-4.409-1.197-1.252-2.886-2.339-4.892-3.588-5.233-2.603-7.919-2.846-12.48-3.26-0.583-0.053-1.198-0.108-1.852-0.172-2.725-0.265-5.206-0.266-8.018-0.199-0.745 0.018-1.514 0.040-2.317 0.064-2.222 0.065-4.702 0.138-7.652 0.138h-12.201l1.319-4.271-2.24 3.067-0.901-0.364 0.673-4.695-2.415 3.779-0.289-0.012 0.022-0.498zM56.113 23.718l0.402 0.298 0.764-1.021-1.257 0.232 0.091 0.491zM15.926 15.382c-0.008 0-0.016 0-0.024 0.001-0.093 0.003-0.23 0.007-0.406 0.015-0.351 0.016-0.854 0.046-1.457 0.101-1.208 0.11-2.808 0.321-4.395 0.72-0.693 0.174-1.521 0.292-2.363 0.401-0.157 0.020-0.314 0.040-0.472 0.060-0.7 0.089-1.404 0.178-2.075 0.295-0.824 0.143-1.564 0.323-2.149 0.575-0.271 0.117-0.496 0.244-0.676 0.381 0.069 0.004 0.143 0.008 0.222 0.011 0.718 0.029 1.751 0.019 2.933-0.027 2.365-0.092 5.278-0.327 7.381-0.676 1.501-0.249 3.252-0.553 4.63-0.795 0.295-0.052 0.573-0.101 0.827-0.146-0.080-0.037-0.161-0.074-0.243-0.111l-0.019-0.009c-0.552-0.253-1.131-0.519-1.714-0.796zM16.034 22.72l0.051 0.496 0.009-0.001 0.009-0.001-0.070-0.494z"></path>
<path fill="#676ec6" style="fill: var(--color2, #676ec6)" d="M12.522 8.116c0 0.384-0.311 0.696-0.696 0.696s-0.696-0.311-0.696-0.696c0-0.384 0.311-0.696 0.696-0.696s0.696 0.311 0.696 0.696z"></path>
<path fill="#676ec6" style="fill: var(--color2, #676ec6)" d="M15.304 9.507c0 0.384-0.311 0.696-0.696 0.696s-0.696-0.311-0.696-0.696c0-0.384 0.311-0.696 0.696-0.696s0.696 0.311 0.696 0.696z"></path>
</symbol>
</defs>
</svg>
