<svg aria-hidden="true" style="position: absolute; width: 0; height: 0; overflow: hidden;" version="1.1" xmlns="http://www.w3.org/2000/svg" xmlns:xlink="http://www.w3.org/1999/xlink">
<defs>
<symbol id="icon-Vector-1" viewBox="0 0 36 32">
<path stroke-linejoin="miter" stroke-linecap="round" stroke-miterlimit="4" stroke-width="0.9143" d="M0.914 0.914c7.7 7.971 15.031 16.245 23.871 23.026 3.15 2.416 6.837 4.47 9.653 7.271M26.508 4.5c-1.064 1.058-1.916 2.204-2.794 3.426-2.61 3.635-5.154 7.326-7.61 11.065-2.737 4.167-5.213 8.51-8.341 12.4"></path>
</symbol>
<symbol id="icon-Vector-10" viewBox="0 0 34 32">
<path fill="none" stroke="#0f664d" style="stroke: var(--color1, #0f664d)" stroke-linejoin="miter" stroke-linecap="butt" stroke-miterlimit="4" stroke-width="0.4848" d="M4.364 26.788c0 0 8.883-3.577 12-8.364 2.289-3.515 4.727-7.515 2.545-12-1.213-2.494-3.758-3.030-5.455-1.576-2.092 1.793-2.094 4.272-0.97 6.788 1.53 3.423 5.226 4.441 8.97 4.242 5.091-0.27 9.091-6.788 9.091-6.788M8.97 3.515c0 0 0.675-1.518 1.455-2.182 0.791-0.673 2.424-1.091 2.424-1.091M11.515 17.212c0 0-2.068 2.051-3.636 3.030-2.073 1.294-3.831 0.881-5.818 2.303-0.764 0.547-1.818 1.576-1.818 1.576M23.151 10.909c0 0 3.055-2.421 4.364-4.485 1.149-1.811 2.061-5.091 2.061-5.091M34.182 8.242c0 0-2.089 5.105-4.606 7.394-2.506 2.279-7.758 3.879-7.758 3.879M10.545 28.242c0 0-1.988 1.471-3.394 2.182-1.271 0.642-3.394 1.333-3.394 1.333"></path>
</symbol>
<symbol id="icon-fire" viewBox="0 0 17 32">
<path fill="#f1eda7" style="fill: var(--color2, #f1eda7)" d="M10.84 24.924c-1.375 2.486-2.567 6.807-2.567 6.807s-0.446-4.241-2.79-6.807c-1.716-1.879-2.99-2.923-4.464-5.133-1.116-1.674-0.67-4.241-0.67-4.241s0.623 0.581 1.116 0.781c0.451 0.183 1.228 0.223 1.228 0.223s-1.054-2.39-1.004-4.017c0.079-2.567 1.674-4.464 1.674-4.464s0 1.586 0.558 2.343c0.444 0.604 1.562 1.116 1.562 1.116s-0.458-3.702 0.558-5.691c0.757-1.483 1.724-1.947 2.901-3.125 0.893-0.893 1.562-2.455 1.562-2.455s0.985 1.422 1.339 2.455c0.343 1.003 0.446 2.678 0.446 2.678s1.187-0.573 2.009-0.67c0.87-0.102 2.232 0.223 2.232 0.223s-2.455 0.558-2.901 3.571c-0.257 1.733 0.335 3.459 0.446 4.464 0.122 1.097-0.223 2.79-0.223 2.79s0.901 0.014 1.562-0.223c0.683-0.245 1.562-1.004 1.562-1.004s0.446 2.009-0.893 3.794c-1.972 2.63-3.654 3.707-5.245 6.584z"></path>
<path fill="#cfb6cb" style="fill: var(--color3, #cfb6cb)" d="M9.501 19.121c-0.419 1.64-0.893 4.241-0.893 4.241s-0.788-1.572-1.562-2.79c-0.902-1.42-2.39-2.272-2.79-3.906-0.355-1.451 0.223-3.348 0.223-3.348s0.319 1.313 0.893 1.897c0.519 0.528 1.674 0.893 1.674 0.893s0.12-1.018 0.446-1.562c0.67-1.116 1.441-1.428 2.009-2.567 0.271-0.543 0.558-1.451 0.558-1.451s1.004 1.562 1.004 3.571c0 2.054-1.054 3.032-1.562 5.022z"></path>
<path fill="none" stroke="#111211" style="stroke: var(--color4, #111211)" stroke-linejoin="round" stroke-linecap="butt" stroke-miterlimit="4" stroke-width="0.5246" d="M10.84 24.924c-1.375 2.486-2.567 6.807-2.567 6.807s-0.446-4.241-2.79-6.807c-1.716-1.879-2.99-2.923-4.464-5.133-1.116-1.674-0.67-4.241-0.67-4.241s0.623 0.581 1.116 0.781c0.451 0.183 1.228 0.223 1.228 0.223s-1.054-2.39-1.004-4.017c0.079-2.567 1.674-4.464 1.674-4.464s0 1.586 0.558 2.343c0.444 0.604 1.562 1.116 1.562 1.116s-0.458-3.702 0.558-5.691c0.757-1.483 1.724-1.947 2.901-3.125 0.893-0.893 1.562-2.455 1.562-2.455s0.985 1.422 1.339 2.455c0.343 1.003 0.446 2.678 0.446 2.678s1.187-0.573 2.009-0.67c0.87-0.102 2.232 0.223 2.232 0.223s-2.455 0.558-2.901 3.571c-0.257 1.733 0.335 3.459 0.446 4.464 0.122 1.097-0.223 2.79-0.223 2.79s0.901 0.014 1.562-0.223c0.683-0.245 1.562-1.004 1.562-1.004s0.446 2.009-0.893 3.794c-1.972 2.63-3.654 3.707-5.245 6.584z"></path>
<path fill="none" stroke="#111211" style="stroke: var(--color4, #111211)" stroke-linejoin="round" stroke-linecap="butt" stroke-miterlimit="4" stroke-width="0.5246" d="M9.501 19.121c-0.419 1.64-0.893 4.241-0.893 4.241s-0.788-1.572-1.562-2.79c-0.902-1.42-2.39-2.272-2.79-3.906-0.355-1.451 0.223-3.348 0.223-3.348s0.319 1.313 0.893 1.897c0.519 0.528 1.674 0.893 1.674 0.893s0.12-1.018 0.446-1.562c0.67-1.116 1.441-1.428 2.009-2.567 0.271-0.543 0.558-1.451 0.558-1.451s1.004 1.562 1.004 3.571c0 2.054-1.054 3.032-1.562 5.022z"></path>
</symbol>
<symbol id="icon-like" viewBox="0 0 46 32">
<path fill="#cfb6cb" style="fill: var(--color3, #cfb6cb)" d="M15.994 14.031c0 0-0.936-3.35-1.617-6.308-0.365-1.582-0.203-4.491-1.132-5.823-0.774-1.109-1.236-1.617-2.588-1.617-2.911 0-3.882 3.073-3.882 6.146 0 1.969 1.369 4.852 1.369 4.852s-3.171-0.346-4.765 0.647c-1.756 1.094-2.982 2.473-2.75 4.529 0.146 1.292 1.617 2.911 1.617 2.911s-2.204 0.659-1.941 3.558c0.162 1.779 1.617 2.561 1.617 2.561s-1.132 1.159-0.647 3.262c0.411 1.779 3.516 2.422 5.176 2.588 2.103 0.21 3.235 0.162 5.984-0.162 2.103-0.247 4.044-1.132 4.044-1.132l2.75-8.249-3.235-7.764z"></path>
<path fill="none" stroke="#111211" style="stroke: var(--color4, #111211)" stroke-linejoin="round" stroke-linecap="round" stroke-miterlimit="4" stroke-width="0.5664" d="M4.349 13.061l4.205-0.323-0.411-1.456M8.143 11.282c0 0-1.369-2.883-1.369-4.852 0-3.073 0.97-6.146 3.882-6.146 1.352-0 1.814 0.509 2.588 1.617 0.929 1.332 0.768 4.24 1.132 5.823 0.682 2.958 1.617 6.308 1.617 6.308l3.235 7.764-2.75 8.249c0 0-1.941 0.885-4.044 1.132-2.75 0.324-3.882 0.372-5.984 0.162-1.659-0.166-4.765-0.808-5.176-2.588-0.485-2.103 0.647-3.262 0.647-3.262M8.143 11.282c0 0-3.171-0.346-4.765 0.647-1.756 1.094-2.982 2.473-2.75 4.529 0.146 1.292 1.617 2.911 1.617 2.911M2.246 19.369c0 0 1.26 0.323 2.103 0.323 0.647 0 1.294-0.162 1.294-0.162M2.246 19.369c0 0-2.204 0.659-1.941 3.558 0.162 1.779 1.617 2.561 1.617 2.561M5.643 26.324c0 0-1.096-0.020-1.779-0.162-0.786-0.162-1.941-0.674-1.941-0.674"></path>
<path fill="#8bccb9" style="fill: var(--color5, #8bccb9)" d="M45.593 12.090v17.63l-23.776-0.485-2.426 1.618c0 0-2.066 0.647-2.911-0.97s1.132-3.073 1.132-3.073-3.521 0.485-3.882-1.779c-0.361-2.264 3.073-2.911 3.073-2.911s-3.558-0.97-3.073-3.235c0.546-2.55 4.367-1.294 4.367-1.294s-2.726-2.281-1.941-3.72c0.97-1.779 3.235-0.647 3.235-0.647l1.617 0.97 24.585-2.103z"></path>
<path fill="none" stroke="#111211" style="stroke: var(--color4, #111211)" stroke-linejoin="round" stroke-linecap="round" stroke-miterlimit="4" stroke-width="0.5664" d="M17.611 26.809c0 0-1.977 1.456-1.132 3.073s2.911 0.97 2.911 0.97l2.426-1.618 0.446 0.009M17.611 26.809l1.456-0.485M17.611 26.809c0 0-3.521 0.485-3.882-1.779s3.073-2.911 3.073-2.911M16.803 22.118h1.294M16.803 22.118c0 0-3.558-0.97-3.073-3.235 0.546-2.55 4.367-1.294 4.367-1.294M18.097 17.59l0.97 0.647M18.097 17.59c0 0-2.726-2.281-1.941-3.72 0.97-1.779 3.235-0.647 3.235-0.647l1.617 0.97 0.809-0.069M39.285 12.63l6.308-0.54v17.63l-5.014-0.102M39.285 12.63c0 0-1.507 1.22-1.294 2.695s3.073 2.264 3.073 2.264M39.285 12.63l-4.852 0.415M41.064 17.59h1.132M41.064 17.59c0 0-2.774 1.026-2.588 3.235s3.235 2.75 3.235 2.75M41.711 23.574h1.132M41.711 23.574c0 0-2.749 0.97-2.749 3.235 0 1.266 1.617 2.809 1.617 2.809M40.579 29.618l-6.146-0.125M34.433 13.045c0 0-2.606 0.825-2.426 2.766 0.112 1.202 2.103 2.264 2.103 2.264M34.433 13.045l-6.712 0.574M34.109 18.075h1.132M34.109 18.075c0 0-2.25 1.294-2.103 3.235s2.75 2.911 2.75 2.911M34.756 24.221h1.132M34.756 24.221c0 0-2.201 0.57-2.264 2.588-0.051 1.617 1.941 2.684 1.941 2.684M34.433 29.492l-5.661-0.116M27.72 13.619c0 0-1.698 0.574-1.537 2.192 0.145 1.45 2.264 2.426 2.264 2.426M27.72 13.619l-5.904 0.505M28.448 18.237h1.294M28.448 18.237c0 0-2.264 0.944-2.264 2.911 0 1.941 2.588 3.073 2.588 3.073M28.772 24.221l1.294-0.162M28.772 24.221c0 0-2.045 1.132-1.941 2.75s1.941 2.406 1.941 2.406M28.772 29.377l-6.509-0.133M21.817 14.124c0 0-1.941 0.393-1.941 2.172s2.588 2.103 2.588 2.103M22.464 18.398h0.809M22.464 18.398c0 0-2.588 0.97-2.426 3.073s2.911 3.073 2.911 3.073M22.949 24.544h1.132M22.949 24.544c0 0-2.696 0.97-2.426 2.75 0.153 1.009 1.74 1.95 1.74 1.95"></path>
<path fill="#e2db4f" style="fill: var(--color6, #e2db4f)" d="M13.245 1.901c0.929 1.332 0.768 4.24 1.132 5.823l0.162 0.647c0 0-2.672 0.3-3.235-4.205-0.323-2.588 0.97-3.409 0.97-3.409 0.334 0.264 0.62 0.643 0.97 1.145z"></path>
<path fill="none" stroke="#111211" style="stroke: var(--color4, #111211)" stroke-linejoin="round" stroke-linecap="round" stroke-miterlimit="4" stroke-width="0.5664" d="M10.657 0.283c0.74 0 1.213 0.152 1.617 0.472M12.274 0.755c0.334 0.264 0.62 0.643 0.97 1.145 0.929 1.332 0.768 4.24 1.132 5.823l0.162 0.647c0 0-2.672 0.3-3.235-4.205-0.323-2.588 0.97-3.409 0.97-3.409z"></path>
</symbol>
</defs>
</svg>
